<svg xmlns="http://www.w3.org/2000/svg" xmlns:xlink="http://www.w3.org/1999/xlink" preserveAspectRatio="xMidYMid" width="15" height="15" viewBox="0 0 15 15">
  <defs>
    <style>

      .cls-2 {
        fill: #d7d7d7;
      }
    </style>
  </defs>
  <path d="M15.354,1.056 C15.354,1.056 8.558,7.851 8.558,7.851 C8.558,7.851 14.697,13.990 14.697,13.990 C14.697,13.990 13.990,14.697 13.990,14.697 C13.990,14.697 7.851,8.558 7.851,8.558 C7.851,8.558 1.056,15.354 1.056,15.354 C1.056,15.354 0.334,14.632 0.334,14.632 C0.334,14.632 7.129,7.836 7.129,7.836 C7.129,7.836 -0.010,0.697 -0.010,0.697 C-0.010,0.697 0.697,-0.010 0.697,-0.010 C0.697,-0.010 7.836,7.129 7.836,7.129 C7.836,7.129 14.632,0.334 14.632,0.334 C14.632,0.334 15.354,1.056 15.354,1.056 Z" id="path-1" class="cls-2" fill-rule="evenodd"/>
</svg>
