<svg xmlns="http://www.w3.org/2000/svg" xmlns:xlink="http://www.w3.org/1999/xlink" preserveAspectRatio="xMidYMid" width="24" height="24" viewBox="0 0 24 24">
  <defs>
    <style>

      .cls-2 {
        fill: #df2671;
      }
    </style>
  </defs>
  <path d="M22.011,1.938 C19.435,-0.647 15.250,-0.646 12.670,1.939 C10.812,3.802 10.314,6.496 11.136,8.827 C11.136,8.827 1.328,18.658 1.328,18.658 C1.328,18.658 -0.010,22.672 -0.010,22.672 C-0.010,22.672 3.996,24.009 3.996,24.009 C3.996,24.009 5.190,22.672 5.190,22.672 C5.190,22.672 9.054,21.334 9.054,21.334 C9.054,21.334 9.054,18.659 9.054,18.659 C9.054,18.659 10.527,17.322 10.527,17.322 C10.527,17.322 11.933,18.659 11.933,18.659 C11.933,18.659 14.637,15.983 14.637,15.983 C14.637,15.983 13.319,14.646 13.319,14.646 C13.319,14.646 15.131,12.837 15.131,12.837 C17.459,13.665 20.151,13.167 22.011,11.302 C24.593,8.718 24.593,4.523 22.011,1.938 ZM18.847,7.257 C17.665,7.257 16.704,6.294 16.704,5.110 C16.704,3.925 17.665,2.962 18.847,2.962 C20.029,2.962 20.990,3.925 20.990,5.110 C20.990,6.294 20.029,7.257 18.847,7.257 Z" id="path-1" class="cls-2" fill-rule="evenodd"/>
</svg>
